<svg xmlns="http://www.w3.org/2000/svg" width="1200" height="800" viewBox="0 0 1200 800">
  <defs>
    <linearGradient id="bg" x1="0" y1="0" x2="1" y2="1">
      <stop stop-color="#053f36"/>
      <stop offset=".55" stop-color="#0a8a67"/>
      <stop offset="1" stop-color="#22c996"/>
    </linearGradient>
    <filter id="shadow" x="-30%" y="-30%" width="160%" height="160%">
      <feDropShadow dx="0" dy="22" stdDeviation="26" flood-color="#002e28" flood-opacity=".5"/>
    </filter>
  </defs>
  <rect width="1200" height="800" rx="48" fill="url(#bg)"/>
  <g opacity=".15" fill="#d6fff3">
    <circle cx="130" cy="150" r="100"/>
    <circle cx="1050" cy="130" r="140"/>
    <circle cx="1030" cy="690" r="180"/>
  </g>

  <rect x="90" y="90" width="86" height="86" rx="22" fill="#062d28" opacity=".88"/>
  <text x="133" y="145" text-anchor="middle" fill="#fff" font-family="Arial" font-size="30" font-weight="700">EH</text>

  <g transform="translate(335 110)" filter="url(#shadow)">
    <rect x="0" y="70" width="530" height="500" rx="44" fill="#eefcf8"/>
    <rect x="0" y="70" width="530" height="110" rx="44" fill="#0d6e59"/>
    <rect x="0" y="140" width="530" height="40" fill="#0d6e59"/>
    <rect x="90" y="20" width="34" height="110" rx="17" fill="#d5fff2"/>
    <rect x="406" y="20" width="34" height="110" rx="17" fill="#d5fff2"/>

    <g fill="#bceee1">
      <rect x="60" y="230" width="74" height="64" rx="14"/>
      <rect x="158" y="230" width="74" height="64" rx="14"/>
      <rect x="256" y="230" width="74" height="64" rx="14"/>
      <rect x="354" y="230" width="74" height="64" rx="14"/>
      <rect x="60" y="320" width="74" height="64" rx="14"/>
      <rect x="158" y="320" width="74" height="64" rx="14"/>
      <rect x="256" y="320" width="74" height="64" rx="14"/>
      <rect x="354" y="320" width="74" height="64" rx="14"/>
      <rect x="60" y="410" width="74" height="64" rx="14"/>
      <rect x="158" y="410" width="74" height="64" rx="14"/>
      <rect x="256" y="410" width="74" height="64" rx="14"/>
      <rect x="354" y="410" width="74" height="64" rx="14"/>
    </g>

    <circle cx="330" cy="352" r="68" fill="#22b889"/>
    <path d="M300 360c18-38 48-52 82-44-8 38-34 66-74 79-16 5-28-14-8-35z" fill="#dffff5"/>
    <path d="M306 377c24-15 48-30 72-49" stroke="#0d6e59" stroke-width="8" stroke-linecap="round"/>
  </g>

  <g transform="translate(120 520)">
    <path d="M0 110c40-95 90-125 150-92-25 70-71 108-138 113z" fill="#71e6be"/>
    <path d="M108 130c36-82 85-108 139-77-25 62-67 96-129 100z" fill="#49cf9d"/>
    <path d="M33 114c26-38 58-72 96-101M134 137c23-33 52-62 87-87" stroke="#0b6d56" stroke-width="8" stroke-linecap="round"/>
  </g>
</svg>
