<svg xmlns="http://www.w3.org/2000/svg" width="1200" height="800" viewBox="0 0 1200 800">
  <defs>
    <linearGradient id="bg" x1="0" y1="0" x2="1" y2="1">
      <stop stop-color="#1a0f0b"/>
      <stop offset=".5" stop-color="#6a2d0c"/>
      <stop offset="1" stop-color="#e98721"/>
    </linearGradient>
    <filter id="s" x="-30%" y="-30%" width="160%" height="160%">
      <feDropShadow dx="0" dy="22" stdDeviation="24" flood-color="#2a0a00" flood-opacity=".55"/>
    </filter>
  </defs>
  <rect width="1200" height="800" rx="48" fill="url(#bg)"/>
  <g opacity=".24">
    <circle cx="120" cy="120" r="80" fill="#fff0c2"/>
    <circle cx="1050" cy="120" r="90" fill="#ffd68a"/>
    <circle cx="200" cy="680" r="120" fill="#ffbf62"/>
  </g>

  <g transform="translate(445 90)" filter="url(#s)">
    <rect x="0" y="0" width="310" height="620" rx="52" fill="#0b1420"/>
    <rect x="18" y="22" width="274" height="576" rx="38" fill="#f8fbff"/>
    <rect x="105" y="38" width="100" height="18" rx="9" fill="#111827"/>
    <text x="48" y="115" fill="#0b1830" font-family="Arial" font-size="34" font-weight="700">Menú QR</text>
    <rect x="48" y="145" width="214" height="214" rx="24" fill="#fff" stroke="#d8e2ef" stroke-width="4"/>
    <g fill="#0b1830">
      <rect x="72" y="169" width="50" height="50"/><rect x="82" y="179" width="30" height="30" fill="#fff"/>
      <rect x="188" y="169" width="50" height="50"/><rect x="198" y="179" width="30" height="30" fill="#fff"/>
      <rect x="72" y="285" width="50" height="50"/><rect x="82" y="295" width="30" height="30" fill="#fff"/>
      <rect x="144" y="169" width="16" height="16"/><rect x="144" y="201" width="16" height="16"/>
      <rect x="160" y="233" width="16" height="16"/><rect x="176" y="249" width="16" height="16"/>
      <rect x="144" y="281" width="16" height="16"/><rect x="160" y="313" width="16" height="16"/>
      <rect x="208" y="249" width="16" height="16"/><rect x="224" y="281" width="16" height="16"/>
    </g>
    <rect x="48" y="393" width="214" height="72" rx="18" fill="#eaf3ff"/>
    <text x="72" y="423" fill="#0b72ff" font-family="Arial" font-size="18" font-weight="700">Mesa 08</text>
    <text x="72" y="449" fill="#475569" font-family="Arial" font-size="16">Pedido en tiempo real</text>
    <rect x="48" y="492" width="214" height="56" rx="18" fill="#0b72ff"/>
    <text x="155" y="527" text-anchor="middle" fill="#fff" font-family="Arial" font-size="20" font-weight="700">Abrir menú</text>
  </g>

  <rect x="92" y="96" width="86" height="86" rx="22" fill="#161616" opacity=".85"/>
  <text x="135" y="150" text-anchor="middle" fill="#fff" font-family="Arial" font-size="30" font-weight="700">QR</text>
</svg>
