<svg xmlns="http://www.w3.org/2000/svg" width="1280" height="800" viewBox="0 0 1280 800">
<defs><linearGradient id="g" x1="0" y1="0" x2="1" y2="1"><stop stop-color="#06111f"/><stop offset=".55" stop-color="#0b4ea2"/><stop offset="1" stop-color="#1c2fe2"/></linearGradient>
<radialGradient id="r"><stop stop-color="#27b7ff" stop-opacity=".55"/><stop offset="1" stop-color="#06111f" stop-opacity="0"/></radialGradient></defs>
<rect width="1280" height="800" rx="40" fill="url(#g)"/>
<circle cx="980" cy="150" r="360" fill="url(#r)"/>
<g fill="none" stroke="#ffffff" stroke-opacity=".12"><path d="M0 120h1280M0 240h1280M0 360h1280M0 480h1280M0 600h1280M0 720h1280"/><path d="M160 0v800M320 0v800M480 0v800M640 0v800M800 0v800M960 0v800M1120 0v800"/></g>
<rect x="92" y="90" width="92" height="92" rx="24" fill="#ffffff" fill-opacity=".08" stroke="#ffffff" stroke-opacity=".16"/>
<text x="138" y="148" text-anchor="middle" fill="#ffffff" font-family="Arial" font-size="38" font-weight="700">LS</text>
<text x="92" y="500" fill="#ffffff" font-family="Arial" font-size="82" font-weight="800">Lengua de Señas</text>
<text x="96" y="555" fill="#b7d8ff" font-family="Arial" font-size="28">IA aplicada a la educación inclusiva</text>
<rect x="92" y="615" width="250" height="54" rx="27" fill="#ffffff" fill-opacity=".09" stroke="#ffffff" stroke-opacity=".14"/>
<text x="217" y="650" text-anchor="middle" fill="#ffffff" font-family="Arial" font-size="21">DaloTech Project</text>
</svg>
