<svg xmlns="http://www.w3.org/2000/svg" width="1200" height="800" viewBox="0 0 1200 800">
  <defs>
    <linearGradient id="bg" x1="0" y1="0" x2="1" y2="1">
      <stop stop-color="#051936"/>
      <stop offset=".55" stop-color="#0a4a91"/>
      <stop offset="1" stop-color="#06a0d8"/>
    </linearGradient>
    <filter id="shadow" x="-30%" y="-30%" width="160%" height="160%">
      <feDropShadow dx="0" dy="20" stdDeviation="24" flood-color="#00162e" flood-opacity=".5"/>
    </filter>
  </defs>
  <rect width="1200" height="800" rx="48" fill="url(#bg)"/>
  <g opacity=".15" stroke="#fff">
    <path d="M0 120h1200M0 240h1200M0 360h1200M0 480h1200M0 600h1200"/>
    <path d="M150 0v800M300 0v800M450 0v800M600 0v800M750 0v800M900 0v800M1050 0v800"/>
  </g>
  <rect x="85" y="90" width="86" height="86" rx="22" fill="#071729" opacity=".9"/>
  <text x="128" y="145" text-anchor="middle" fill="#fff" font-family="Arial" font-size="30" font-weight="700">IA</text>

  <g transform="translate(380 105)" filter="url(#shadow)">
    <circle cx="220" cy="160" r="92" fill="#f3c7aa"/>
    <path d="M128 145c13-105 176-124 187 3-41-15-81-8-125 3-22 6-42 4-62-6z" fill="#182235"/>
    <path d="M123 240c35-46 160-46 195 0l46 265H76z" fill="#101827"/>
    <path d="M185 220c20 18 50 18 70 0l15 64-100 0z" fill="#f3c7aa"/>
    <g fill="#f3c7aa">
      <path d="M150 325c-40 8-68 25-86 53-10 16 8 33 22 22 23-18 47-32 77-42z"/>
      <path d="M286 327c42 10 70 30 87 61 8 15-10 31-23 19-22-21-47-36-77-47z"/>
      <path d="M152 347c-14 47-15 86-4 122 5 17 30 10 26-7-8-32-6-64 6-100z"/>
      <path d="M282 351c15 48 16 86 7 121-4 17-29 12-26-6 7-31 4-63-8-99z"/>
    </g>
    <path d="M172 420c30-20 59-20 88 0" fill="none" stroke="#f3c7aa" stroke-width="22" stroke-linecap="round"/>
  </g>

  <g transform="translate(760 140)">
    <rect width="300" height="420" rx="34" fill="#fff" opacity=".95"/>
    <rect x="34" y="34" width="232" height="84" rx="20" fill="#eaf4ff"/>
    <text x="150" y="85" text-anchor="middle" fill="#0b72ff" font-family="Arial" font-size="30" font-weight="700">Hola</text>
    <rect x="34" y="146" width="232" height="220" rx="20" fill="#f4f8fd"/>
    <path d="M112 292v-94M146 292v-116M180 292v-90M214 292v-60" stroke="#0b72ff" stroke-width="20" stroke-linecap="round"/>
    <path d="M112 265c0 62 104 68 118 4" fill="none" stroke="#0b72ff" stroke-width="20" stroke-linecap="round"/>
    <text x="150" y="402" text-anchor="middle" fill="#334155" font-family="Arial" font-size="20">Lengua de Señas Colombiana</text>
  </g>
</svg>
